PathFileType	4	(X/Y/Z)	c:/Users/goper/Files/vsCode/490R/osim_files/A04/A04_Fast_03.trc
DataRate	CameraRate	NumFrames	NumMarkers	Units                	OrigDataRate	OrigDataStartFrame	OrigNumFrames
120.00	120.00	4	36	mm	120.0	734	1467
                Frame#	Time	LPSIS			LASIS			LTH1			LTH2			LTH3			LTH4			LLFE			LMFE			LSH1			LSH2			LSH3			LSH4			LLMAL			LMMAL			LCAL			LMTP5			LTOE			LMTP1			RPSIS			RASIS			RTH1			RTH2			RTH3			RTH4			RLFE			RMFE			RSH1			RSH2			RSH3			RSH4			RLMAL			RMMAL			RCAL			RMTP1			RTOE			RMTP5		
		X1	Y1	Z1	X2	Y2	Z2	X3	Y3	Z3	X4	Y4	Z4	X5	Y5	Z5	X6	Y6	Z6	X7	Y7	Z7	X8	Y8	Z8	X9	Y9	Z9	X10	Y10	Z10	X11	Y11	Z11	X12	Y12	Z12	X13	Y13	Z13	X14	Y14	Z14	X15	Y15	Z15	X16	Y16	Z16	X17	Y17	Z17	X18	Y18	Z18	X19	Y19	Z19	X20	Y20	Z20	X21	Y21	Z21	X22	Y22	Z22	X23	Y23	Z23	X24	Y24	Z24	X25	Y25	Z25	X26	Y26	Z26	X27	Y27	Z27	X28	Y28	Z28	X29	Y29	Z29	X30	Y30	Z30	X31	Y31	Z31	X32	Y32	Z32	X33	Y33	Z33	X34	Y34	Z34	X35	Y35	Z35	X36	Y36	Z36

734	6.10833	982.47192	1060.27271	378.17429	757.72308	1012.51575	453.91370	775.50623	696.76855	474.21011	774.95264	651.39655	472.08908	836.63672	690.69928	472.54779	829.49286	646.72229	470.94452	799.16962	524.40979	460.40649	770.72180	536.31158	324.11505	828.63556	421.45602	452.29459	818.68848	378.74344	447.63986	765.81146	426.93808	445.80478	766.37708	383.81439	440.39807	825.82800	104.42367	380.58926	795.75043	109.21702	298.27109	880.99805	64.54698	318.69485	686.01007	58.30497	427.13818	632.75647	75.38226	371.51141	645.14313	60.49512	325.56674	987.63159	1044.30518	272.77850	769.13599	1013.38226	169.35320	794.28900	707.10840	129.09842	778.51270	668.38409	126.28873	737.90729	727.20050	114.22519	728.78528	681.33972	114.91650	692.99615	543.86133	129.98059	679.39441	537.78796	252.00798	882.30566	414.07022	146.52512	913.75458	379.21216	154.46562	841.61383	369.93280	137.32526	877.06934	341.49304	145.29665	1037.44336	228.46425	152.02145	1004.95166	215.16026	283.14154	1117.32275	235.60234	234.57585	948.98132	83.63825	253.65358	920.52826	86.46694	207.55685	968.49243	89.32317	137.45761
735	6.11667	973.43091	1061.56030	379.21634	0.00000	0.00000	0.00000	770.09119	696.69861	473.59760	770.29834	651.48810	471.63724	831.28723	691.43756	472.29135	824.73138	647.39862	470.54242	796.32538	524.78162	459.61691	767.77936	536.26697	323.44852	826.41064	421.97464	451.71210	816.67853	379.20041	447.16077	763.18921	426.90585	444.69781	764.42303	383.90302	439.83414	825.31781	104.29902	380.37967	796.29144	109.19633	298.63211	880.33929	64.21331	318.40125	685.93048	58.32361	427.05066	632.66705	75.28278	371.38162	645.08655	60.34165	325.47528	978.79333	1045.91309	273.72482	760.50214	1015.89453	169.72801	780.00586	711.02600	127.41793	762.16943	672.14526	125.50909	723.56317	732.18372	114.04296	711.35876	685.57526	117.27897	675.18134	549.20251	130.40909	661.55060	543.59729	252.45218	860.28198	412.81039	146.84323	889.91241	376.46890	155.22574	818.01434	370.12469	137.79732	852.76953	340.19559	145.65726	1009.06360	222.22737	152.50505	976.13348	209.96344	283.57324	1088.30249	225.73639	235.00679	0.00000	0.00000	0.00000	886.99139	84.21973	208.36714	935.03314	85.24448	138.15808
736	6.12500	964.56348	1062.77063	380.08109	739.65381	1013.48682	454.66174	764.84375	696.75977	473.05124	765.65015	651.67377	471.11777	826.14929	692.07446	471.99161	819.99890	647.85229	470.34311	793.05023	524.93085	458.46408	765.04059	536.24841	322.54919	824.09802	422.48672	451.07629	814.81659	379.81461	446.61877	760.85895	427.08154	444.08081	762.12091	383.97403	438.93243	825.55469	104.87151	380.41479	796.17017	109.19330	298.52234	880.84528	64.92879	318.70670	685.87915	58.35861	426.94089	632.03326	74.87901	370.69678	645.07611	60.25005	325.36600	970.07690	1047.34851	274.53189	751.88574	1018.09265	170.14278	764.76617	714.21149	126.27928	746.69086	675.99933	124.06224	709.47003	737.23303	113.50276	696.13165	690.65381	117.11121	657.94952	554.40778	130.82098	644.35120	549.10791	252.78314	838.25696	411.41107	147.25478	866.72028	373.92212	155.61227	792.64465	371.20792	139.62994	828.27789	338.72177	146.15898	979.72113	214.92056	152.77539	946.71637	204.42583	284.05771	1060.19336	216.24445	235.08722	882.19495	77.69597	255.72884	852.97577	81.91425	209.09778	900.89069	81.05821	138.90021
737	6.13333	955.70453	1063.80713	380.83817	730.61584	1013.46222	454.91476	759.48901	696.61169	472.55347	760.80133	651.43915	470.53427	820.90625	692.77100	471.74545	815.38226	648.73669	470.01648	790.33899	525.38556	458.12866	761.79169	536.21045	321.88669	821.75854	423.00119	450.51099	812.56342	380.08258	446.06732	758.45941	427.09662	443.56879	760.19952	384.20480	438.77606	825.29810	104.85103	380.30267	796.12134	109.19043	298.43634	880.88104	65.04105	318.67493	685.87909	58.39703	426.87872	632.40234	75.15395	371.08841	645.02441	60.14310	325.28668	961.29828	1048.60315	275.21750	743.23657	1020.06006	170.59386	750.79114	717.74976	124.43280	731.38336	679.72662	122.63525	693.62354	741.29309	115.59708	680.89490	695.32617	117.20604	641.02307	559.45148	131.22878	627.59637	554.47382	253.27390	816.41077	409.54672	147.76633	842.72729	370.59058	156.30215	769.53888	370.61804	140.37921	803.87146	337.08893	146.77066	950.17963	207.70844	153.26833	917.62903	199.01334	284.91190	1030.66150	206.25177	235.38420	847.46533	74.45308	256.38977	818.15204	79.81990	210.11188	865.92780	76.81168	140.04578
